<svg version="1.1" xmlns="http://www.w3.org/2000/svg" xmlns:xlink="http://www.w3.org/1999/xlink" width="168" height="168" viewBox="0,0,168,168"><defs><linearGradient x1="320.70434" y1="152.04114" x2="320.70434" y2="212.40258" gradientUnits="userSpaceOnUse" id="color-1"><stop offset="0" stop-color="#3ec8ec"/><stop offset="1" stop-color="#004f88"/></linearGradient><linearGradient x1="335.81656" y1="204.50688" x2="385.47103" y2="204.50688" gradientUnits="userSpaceOnUse" id="color-2"><stop offset="0" stop-color="#01284f" stop-opacity="0"/><stop offset="1" stop-color="#01284f"/></linearGradient><linearGradient x1="300.92445" y1="199.592" x2="377.55468" y2="199.592" gradientUnits="userSpaceOnUse" id="color-3"><stop offset="0" stop-color="#164582"/><stop offset="1" stop-color="#00030b"/></linearGradient><linearGradient x1="351.19715" y1="120.15096" x2="351.19715" y2="247.20706" gradientUnits="userSpaceOnUse" id="color-4"><stop offset="0" stop-color="#002951"/><stop offset="1" stop-color="#042145"/></linearGradient><linearGradient x1="315.33283" y1="112.79294" x2="315.33283" y2="246.29799" gradientUnits="userSpaceOnUse" id="color-5"><stop offset="0" stop-color="#0382cd"/><stop offset="1" stop-color="#0bbff2"/></linearGradient></defs><g transform="translate(-236,-96)"><g data-paper-data="{&quot;isPaintingLayer&quot;:true}" fill-rule="nonzero" stroke="none" stroke-width="0" stroke-linecap="butt" stroke-linejoin="miter" stroke-miterlimit="10" stroke-dasharray="" stroke-dashoffset="0" style="mix-blend-mode: normal"><path d="M236,264v-168h168v168z" fill="none"/><path d="M274.1586,213.22495l-7.56574,-11.84203c0,0 27.44473,-28.11085 36.69422,-37.15059c9.88183,-9.65774 12.91475,-12.58278 17.74621,-12.52013c4.78287,0.06202 8.47226,4.20896 17.0053,12.94269c15.0784,15.43302 33.15884,34.26095 33.15884,34.26095l-7.07232,9.53941l-43.09986,-40.92789z" fill="url(#color-1)"/><path d="M351.76837,226.37247c-5.66744,0.27617 -10.62567,-0.13874 -14.94139,-0.99524c-0.28149,-0.05586 -0.83629,-0.17316 -0.83629,-0.17316l-0.17412,-7.75578c0,0 12.36608,-0.33229 19.6117,-2.62485c6.47451,-2.04857 17.28905,-15.92071 19.29483,-23.82064c1.96126,-7.7246 10.74793,-8.4464 10.74793,-8.4464c0,0 -1.02242,15.53462 -8.42358,28.86788c-4.49109,8.09076 -8.21503,11.34082 -8.21503,11.34082c0,0 -14.43917,3.29629 -17.06405,3.60736z" fill="url(#color-2)"/><path d="M377.38052,179.49733c0,0 0.17558,0.34719 0.17415,0.5645c-0.16447,24.93656 -17.56261,37.29851 -34.48112,39.30344c-26.36734,3.12467 -42.14909,-21.4418 -42.14909,-21.4418c0,0 18.8876,21.65719 47.24071,9.23198c16.82159,-7.08558 29.21536,-27.65812 29.21536,-27.65812z" fill="url(#color-3)"/><path d="M351.28533,120.47663c-0.26038,-0.13809 -0.61829,-0.32567 -0.61829,-0.32567c0,0 10.06714,4.30618 19.31827,15.56685c10.50166,12.78285 21.01795,33.79072 14.04802,62.63691c-6.96993,28.84619 -30.2156,42.1296 -47.83557,46.8393c-11.17967,2.98825 -20.08512,1.76528 -20.08512,1.76528l0.28337,-9.70355c0,0 9.64269,1.21135 19.57295,-1.56497c11.64776,-3.2565 23.30435,-11.65585 28.49832,-18.22375c12.56003,-15.88247 11.92331,-36.52986 11.92331,-36.52986c0,0 -2.32688,3.96664 -4.19135,6.77183c-4.1357,6.22241 -8.15665,8.38923 -8.15665,8.38923c0,0 0.52078,-0.47271 0.88392,-0.87535c5.76308,-6.38981 11.08832,-15.56865 11.73208,-28.72006c1.55747,-20.64805 -8.43247,-37.04185 -25.37325,-46.02617z" fill="url(#color-4)"/><path d="M253.71834,177.45287c0,-35.71068 28.94925,-64.65993 64.65994,-64.65993c35.71069,0 60.81385,21.73422 58.41005,53.60245c-1.0408,21.26243 -14.31827,32.14114 -21.89921,37.63773c-6.57031,4.76384 -13.53961,6.87422 -20.94198,7.87364c-18.47575,2.4945 -33.38765,-13.87538 -33.38765,-13.87538c0,0 14.14712,11.86466 26.99973,10.57953c28.36311,-2.83602 41.84466,-29.35626 42.4238,-41.88115c1.25693,-27.18355 -23.33937,-45.88006 -52.12994,-45.88006c-28.79057,0 -55.49526,26.70469 -55.49526,55.49526c0,25.27479 21.07752,54.52201 49.41531,59.97522c-3.91492,2.96481 -6.65173,6.70503 -10.11733,9.97781c-34.29811,-12.14975 -47.93745,-39.9697 -47.93745,-68.84513z" fill="url(#color-5)"/></g></g></svg>